# xmcd CD database file
#
# Track frame offsets:
#	183
#	14820
#	26290
#	37840
#	52115
#	65690
#	79453
#	92438
#	109288
#	135353
#	152838
#	170135
#	188350
#	203503
#	238785
#	299533
#
# Disc length: 4273 seconds
#
# Revision: 6
# Processed by: cddbd v1.5.2PL0 Copyright (c) Steve Scherf et al.
# Submitted via: CDex 1.51
#
DISCID=db10af10
DTITLE=Miles Davis - Vol. 009 - Evolution Of A Genius 1945 - 1954
DYEAR=1990
DGENRE=Jazz
TTITLE0=Now's The Time
TTITLE1=Donna Lee
TTITLE2=Milestones
TTITLE3=Jeru
TTITLE4=Boplicity
TTITLE5=Rocker
TTITLE6=Ezz-Thetic
TTITLE7=Yesterdays
TTITLE8=Compulsion
TTITLE9=Tempus Fugit
TTITLE10=Tune Up
TTITLE11=It Never Entered My Mind
TTITLE12=Old Devil Moon
TTITLE13=I'll Remember April
TTITLE14=Walkin'
TTITLE15=But Not For Me
EXTD=Entry: Martin Emmerich <me@grmbl.muc.de>\n03-Mar-1998\n YEAR: 1990
EXTT0=
EXTT1=
EXTT2=
EXTT3=
EXTT4=
EXTT5=
EXTT6=
EXTT7=
EXTT8=
EXTT9=
EXTT10=
EXTT11=
EXTT12=
EXTT13=
EXTT14=
EXTT15=
PLAYORDER=
